<svg xmlns="http://www.w3.org/2000/svg" width="99.425" height="109.199" viewBox="0 0 99.425 109.199">
  <g id="Group_20607" data-name="Group 20607" transform="translate(0 0.012)">
    <g id="Page-1" transform="translate(0 -0.012)">
      <g id="_011---Approved-Cleaning" data-name="011---Approved-Cleaning" transform="translate(0 0)">
        <path id="Shape" d="M83.081,67.051A5.4,5.4,0,0,1,82.73,69a5.533,5.533,0,0,1-1.365,2.183A5.835,5.835,0,0,1,77.233,72.9h-3.9a5.849,5.849,0,0,1,5.849,5.849,5.4,5.4,0,0,1-.351,1.95,5.533,5.533,0,0,1-1.365,2.183A5.835,5.835,0,0,1,73.334,84.6h-3.9a5.849,5.849,0,1,1,0,11.7H34.344a23.451,23.451,0,0,1-8.734-1.54c-1.911-.76-3.587-1.989-5.439-2.885a14.586,14.586,0,0,0-6.3-1.423H9l3.9-38.99a20.729,20.729,0,0,0,11.19-3.295c7.038-4.484,17.7-12.633,15.4-23-.78-3.49-1.072-6.9,2.651-8.792,4.133-2.105,8.09.565,10.02,3.938,6.492,11.366-4.854,29.2-4.854,29.2H75.283a5.849,5.849,0,0,1,5.849,5.849,5.4,5.4,0,0,1-.351,1.95,5.533,5.533,0,0,1-1.365,2.183A5.835,5.835,0,0,1,75.283,61.2h1.95A5.849,5.849,0,0,1,83.081,67.051Z" transform="translate(8.546 12.903)" fill="#7ad0ff"/>
        <path id="Shape-2" data-name="Shape" d="M53.195,49a5.533,5.533,0,0,1-1.365,2.183A5.835,5.835,0,0,1,47.7,52.9H37.95a1.95,1.95,0,1,1,0-3.9Z" transform="translate(34.182 44.6)" fill="#4eb7f1"/>
        <path id="Shape-3" data-name="Shape" d="M57.094,43a5.533,5.533,0,0,1-1.365,2.183A5.835,5.835,0,0,1,51.6,46.9H37.95a1.95,1.95,0,1,1,0-3.9Z" transform="translate(34.182 38.903)" fill="#4eb7f1"/>
        <path id="Shape-4" data-name="Shape" d="M55.144,37a5.533,5.533,0,0,1-1.365,2.183A5.835,5.835,0,0,1,49.647,40.9H37.95a1.95,1.95,0,1,1,0-3.9Z" transform="translate(34.182 33.206)" fill="#4eb7f1"/>
        <rect id="Rectangle-path" width="21.445" height="50.687" rx="3" transform="translate(0 58.509)" fill="#4eb7f1"/>
        <g id="Group_67" data-name="Group 67" transform="translate(13.648)">
          <g id="Group_64" data-name="Group 64" transform="translate(66.282 35.115)">
            <path id="Shape-5" data-name="Shape" d="M46.95,26.8A1.95,1.95,0,0,1,45,24.849v-3.9a1.95,1.95,0,0,1,3.9,0v3.9A1.95,1.95,0,0,1,46.95,26.8Z" transform="translate(-37.202 -19)" fill="#d2e9f6"/>
            <path id="Shape-6" data-name="Shape" d="M46.95,32.8A1.95,1.95,0,0,1,45,30.849v-3.9a1.95,1.95,0,1,1,3.9,0v3.9A1.95,1.95,0,0,1,46.95,32.8Z" transform="translate(-37.202 -13.303)" fill="#d2e9f6"/>
            <path id="Shape-7" data-name="Shape" d="M52.849,26.9h-3.9a1.95,1.95,0,1,1,0-3.9h3.9a1.95,1.95,0,1,1,0,3.9Z" transform="translate(-35.303 -15.202)" fill="#d2e9f6"/>
            <path id="Shape-8" data-name="Shape" d="M46.849,26.9h-3.9a1.95,1.95,0,1,1,0-3.9h3.9a1.95,1.95,0,1,1,0,3.9Z" transform="translate(-41 -15.202)" fill="#d2e9f6"/>
          </g>
          <path id="Shape-9" data-name="Shape" d="M25.385,12.335a1.949,1.949,0,0,1-1.378-.571L21.083,8.839a1.95,1.95,0,1,1,2.757-2.757l2.924,2.924a1.949,1.949,0,0,1-1.378,3.328Z" transform="translate(5.805 3.285)" fill="#d2e9f6"/>
          <path id="Shape-10" data-name="Shape" d="M20.862,7.812a1.95,1.95,0,0,1-1.378-.571L16.56,4.316A1.95,1.95,0,0,1,19.316,1.56L22.24,4.484a1.949,1.949,0,0,1-1.378,3.328Z" transform="translate(1.556 -0.964)" fill="#d2e9f6"/>
          <path id="Shape-11" data-name="Shape" d="M17.949,12.335a1.949,1.949,0,0,1-1.378-3.328L19.5,6.083A1.95,1.95,0,1,1,22.252,8.84l-2.924,2.924a1.95,1.95,0,0,1-1.378.571Z" transform="translate(1.544 3.285)" fill="#d2e9f6"/>
          <path id="Shape-12" data-name="Shape" d="M22.449,7.835a1.949,1.949,0,0,1-1.378-3.328L24,1.583A1.95,1.95,0,1,1,26.752,4.34L23.828,7.264a1.95,1.95,0,0,1-1.378.571Z" transform="translate(5.817 -0.988)" fill="#d2e9f6"/>
          <path id="Shape-13" data-name="Shape" d="M55.715,16.11A18.208,18.208,0,0,0,45.11,26.754a.975.975,0,0,1-1.833-.039A18.325,18.325,0,0,0,32.672,16.11a.961.961,0,0,1,0-1.833A18.177,18.177,0,0,0,43.277,3.672a.961.961,0,0,1,1.833,0A18.1,18.1,0,0,0,55.754,14.277a.975.975,0,0,1-.039,1.833Z" transform="translate(16.737 0.924)" fill="#d2e9f6"/>
          <path id="Shape-14" data-name="Shape" d="M21.7,22.679a13.473,13.473,0,0,0-6.18,6.18.951.951,0,0,1-1.755,0,13.407,13.407,0,0,0-6.18-6.18.951.951,0,0,1,0-1.755,13.407,13.407,0,0,0,6.18-6.18.951.951,0,0,1,1.755,0,13.473,13.473,0,0,0,6.18,6.18.951.951,0,0,1,0,1.755Z" transform="translate(-7.001 11.52)" fill="#d2e9f6"/>
        </g>
      </g>
    </g>
  </g>
</svg>
